<svg
  width="25"
  height="25"
  viewBox="0 0 25 25"
  fill="none"
  xmlns="http://www.w3.org/2000/svg"
>
  <path
    fill="currentColor"
    d="M11.3943 22.7697C10.9443 22.7697 10.5568 22.6197 10.2318 22.3197C9.90682 22.0197 9.71098 21.653 9.64432 21.2197L9.41932 19.5697C9.20265 19.4863 8.99848 19.3863 8.80682 19.2697C8.61515 19.153 8.42765 19.028 8.24432 18.8947L6.69432 19.5447C6.27765 19.728 5.86098 19.7447 5.44432 19.5947C5.02765 19.4447 4.70265 19.178 4.46932 18.7947L3.29432 16.7447C3.06098 16.3613 2.99432 15.953 3.09432 15.5197C3.19432 15.0863 3.41932 14.728 3.76932 14.4447L5.09432 13.4447C5.07765 13.328 5.06932 13.2155 5.06932 13.1072V12.4322C5.06932 12.3238 5.07765 12.2113 5.09432 12.0947L3.76932 11.0947C3.41932 10.8113 3.19432 10.453 3.09432 10.0197C2.99432 9.58632 3.06098 9.17799 3.29432 8.79465L4.46932 6.74465C4.70265 6.36132 5.02765 6.09465 5.44432 5.94465C5.86098 5.79465 6.27765 5.81132 6.69432 5.99465L8.24432 6.64465C8.42765 6.51132 8.61932 6.38632 8.81932 6.26965C9.01932 6.15299 9.21932 6.05299 9.41932 5.96965L9.64432 4.31965C9.71098 3.88632 9.90682 3.51965 10.2318 3.21965C10.5568 2.91965 10.9443 2.76965 11.3943 2.76965H13.7443C14.1943 2.76965 14.5818 2.91965 14.9068 3.21965C15.2318 3.51965 15.4276 3.88632 15.4943 4.31965L15.7193 5.96965C15.936 6.05299 16.1402 6.15299 16.3318 6.26965C16.5235 6.38632 16.711 6.51132 16.8943 6.64465L18.4443 5.99465C18.861 5.81132 19.2777 5.79465 19.6943 5.94465C20.111 6.09465 20.436 6.36132 20.6693 6.74465L21.8443 8.79465C22.0776 9.17799 22.1443 9.58632 22.0443 10.0197C21.9443 10.453 21.7193 10.8113 21.3693 11.0947L20.0443 12.0947C20.061 12.2113 20.0693 12.3238 20.0693 12.4322V13.1072C20.0693 13.2155 20.0526 13.328 20.0193 13.4447L21.3443 14.4447C21.6943 14.728 21.9193 15.0863 22.0193 15.5197C22.1193 15.953 22.0527 16.3613 21.8193 16.7447L20.6193 18.7947C20.386 19.178 20.061 19.4447 19.6443 19.5947C19.2276 19.7447 18.811 19.728 18.3943 19.5447L16.8943 18.8947C16.711 19.028 16.5193 19.153 16.3193 19.2697C16.1193 19.3863 15.9193 19.4863 15.7193 19.5697L15.4943 21.2197C15.4276 21.653 15.2318 22.0197 14.9068 22.3197C14.5818 22.6197 14.1943 22.7697 13.7443 22.7697H11.3943ZM11.5693 20.7697H13.5443L13.8943 18.1197C14.411 17.9863 14.8902 17.7905 15.3318 17.5322C15.7735 17.2738 16.1776 16.9613 16.5443 16.5947L19.0193 17.6197L19.9943 15.9197L17.8443 14.2947C17.9276 14.0613 17.986 13.8155 18.0193 13.5572C18.0527 13.2988 18.0693 13.0363 18.0693 12.7697C18.0693 12.503 18.0527 12.2405 18.0193 11.9822C17.986 11.7238 17.9276 11.478 17.8443 11.2447L19.9943 9.61965L19.0193 7.91965L16.5443 8.96965C16.1776 8.58632 15.7735 8.26549 15.3318 8.00715C14.8902 7.74882 14.411 7.55299 13.8943 7.41965L13.5693 4.76965H11.5943L11.2443 7.41965C10.7276 7.55299 10.2485 7.74882 9.80682 8.00715C9.36515 8.26549 8.96098 8.57799 8.59432 8.94465L6.11932 7.91965L5.14432 9.61965L7.29432 11.2197C7.21098 11.4697 7.15265 11.7197 7.11932 11.9697C7.08598 12.2197 7.06932 12.4863 7.06932 12.7697C7.06932 13.0363 7.08598 13.2947 7.11932 13.5447C7.15265 13.7947 7.21098 14.0447 7.29432 14.2947L5.14432 15.9197L6.11932 17.6197L8.59432 16.5697C8.96098 16.953 9.36515 17.2738 9.80682 17.5322C10.2485 17.7905 10.7276 17.9863 11.2443 18.1197L11.5693 20.7697ZM12.6193 16.2697C13.586 16.2697 14.411 15.928 15.0943 15.2447C15.7776 14.5613 16.1193 13.7363 16.1193 12.7697C16.1193 11.803 15.7776 10.978 15.0943 10.2947C14.411 9.61132 13.586 9.26965 12.6193 9.26965C11.636 9.26965 10.8068 9.61132 10.1318 10.2947C9.45682 10.978 9.11932 11.803 9.11932 12.7697C9.11932 13.7363 9.45682 14.5613 10.1318 15.2447C10.8068 15.928 11.636 16.2697 12.6193 16.2697Z"
  />
</svg>
