<svg width="141" height="36" viewBox="0 0 141 36" fill="none" xmlns="http://www.w3.org/2000/svg">
<rect width="141" height="36" rx="18" fill="#FF6500"/>
<path d="M19.65 24V12.432C19.698 12.432 19.8393 12.432 20.074 12.432C20.3087 12.432 20.586 12.432 20.906 12.432C21.2313 12.432 21.5593 12.4347 21.89 12.44C22.226 12.44 22.5167 12.4427 22.762 12.448C24.17 12.4747 25.314 12.7173 26.194 13.176C27.0793 13.6293 27.7273 14.2773 28.138 15.12C28.554 15.9573 28.762 16.968 28.762 18.152C28.762 19.3893 28.5407 20.4427 28.098 21.312C27.6607 22.1813 26.9887 22.848 26.082 23.312C25.1807 23.7707 24.034 24 22.642 24H19.65ZM21.626 22.392H22.674C23.4687 22.392 24.17 22.256 24.778 21.984C25.386 21.7067 25.8607 21.2587 26.202 20.64C26.5487 20.0213 26.722 19.1947 26.722 18.16C26.722 17.1573 26.562 16.3547 26.242 15.752C25.922 15.1493 25.4633 14.7147 24.866 14.448C24.2687 14.176 23.554 14.04 22.722 14.04H21.626V22.392ZM34.3381 24.16C33.5435 24.16 32.8421 23.992 32.2341 23.656C31.6315 23.3147 31.1595 22.8293 30.8181 22.2C30.4821 21.5707 30.3141 20.8213 30.3141 19.952C30.3141 19.104 30.4661 18.352 30.7701 17.696C31.0795 17.0347 31.5248 16.5147 32.1061 16.136C32.6928 15.7573 33.3995 15.568 34.2261 15.568C35.0421 15.568 35.7275 15.7413 36.2821 16.088C36.8368 16.4347 37.2581 16.92 37.5461 17.544C37.8341 18.1627 37.9781 18.888 37.9781 19.72V20.312H32.2581C32.2528 20.7813 32.3275 21.1973 32.4821 21.56C32.6368 21.9227 32.8661 22.208 33.1701 22.416C33.4741 22.6187 33.8501 22.72 34.2981 22.72C34.7568 22.72 35.1541 22.6187 35.4901 22.416C35.8315 22.208 36.0581 21.8933 36.1701 21.472H37.9461C37.8501 22.048 37.6208 22.536 37.2581 22.936C36.9008 23.336 36.4635 23.64 35.9461 23.848C35.4341 24.056 34.8981 24.16 34.3381 24.16ZM32.2501 19.104H36.1381C36.1381 18.704 36.0661 18.344 35.9221 18.024C35.7835 17.6987 35.5728 17.4427 35.2901 17.256C35.0075 17.064 34.6501 16.968 34.2181 16.968C33.7915 16.968 33.4315 17.072 33.1381 17.28C32.8448 17.488 32.6235 17.7573 32.4741 18.088C32.3248 18.4133 32.2501 18.752 32.2501 19.104ZM39.8384 26.576V15.728H41.7824L41.7984 17.032C41.905 16.8507 42.041 16.672 42.2064 16.496C42.377 16.32 42.5717 16.1627 42.7904 16.024C43.0144 15.8853 43.2624 15.776 43.5344 15.696C43.8064 15.6107 44.105 15.568 44.4304 15.568C45.065 15.568 45.6277 15.72 46.1184 16.024C46.609 16.3227 46.993 16.784 47.2704 17.408C47.553 18.032 47.6944 18.8213 47.6944 19.776C47.6944 20.752 47.5504 21.5653 47.2624 22.216C46.9744 22.8667 46.5717 23.3547 46.0544 23.68C45.537 24 44.937 24.16 44.2544 24.16C43.9397 24.16 43.6517 24.1173 43.3904 24.032C43.1344 23.9467 42.905 23.8293 42.7024 23.68C42.4997 23.5307 42.321 23.368 42.1664 23.192C42.017 23.016 41.8917 22.832 41.7904 22.64V26.576H39.8384ZM43.8224 22.704C44.409 22.704 44.8944 22.472 45.2784 22.008C45.6624 21.5387 45.8544 20.8053 45.8544 19.808C45.8544 18.944 45.673 18.264 45.3104 17.768C44.953 17.2667 44.457 17.016 43.8224 17.016C43.1397 17.016 42.6277 17.28 42.2864 17.808C41.945 18.3307 41.7744 18.9973 41.7744 19.808C41.7744 20.3307 41.849 20.8133 41.9984 21.256C42.153 21.6933 42.3797 22.0453 42.6784 22.312C42.9824 22.5733 43.3637 22.704 43.8224 22.704ZM51.8474 24.12C51.314 24.12 50.8874 24.0533 50.5674 23.92C50.2474 23.7867 50.0074 23.608 49.8474 23.384C49.6874 23.16 49.5834 22.9093 49.5354 22.632C49.4874 22.3493 49.4634 22.0613 49.4634 21.768V12.112H51.3674V21.544C51.3674 21.9013 51.4394 22.1787 51.5834 22.376C51.7327 22.5733 51.9727 22.688 52.3034 22.72L52.7194 22.736V23.96C52.5754 24.0027 52.4287 24.04 52.2794 24.072C52.13 24.104 51.986 24.12 51.8474 24.12ZM57.576 24.16C56.7867 24.16 56.0987 23.992 55.512 23.656C54.9253 23.3147 54.4693 22.8267 54.144 22.192C53.824 21.5573 53.664 20.7947 53.664 19.904C53.664 19.04 53.8213 18.2827 54.136 17.632C54.4507 16.9813 54.8987 16.4747 55.48 16.112C56.0667 15.7493 56.768 15.568 57.584 15.568C58.3733 15.568 59.0587 15.7413 59.64 16.088C60.2213 16.4347 60.6693 16.9307 60.984 17.576C61.304 18.2213 61.464 18.9973 61.464 19.904C61.464 20.7413 61.312 21.48 61.008 22.12C60.7093 22.7547 60.2693 23.2533 59.688 23.616C59.112 23.9787 58.408 24.16 57.576 24.16ZM57.584 22.68C58.032 22.68 58.4 22.5573 58.688 22.312C58.9813 22.0667 59.2 21.7307 59.344 21.304C59.488 20.8773 59.56 20.392 59.56 19.848C59.56 19.3413 59.496 18.8747 59.368 18.448C59.24 18.0213 59.0293 17.68 58.736 17.424C58.448 17.1627 58.064 17.032 57.584 17.032C57.1307 17.032 56.7547 17.152 56.456 17.392C56.1627 17.6267 55.944 17.9573 55.8 18.384C55.656 18.8053 55.584 19.2933 55.584 19.848C55.584 20.3493 55.648 20.816 55.776 21.248C55.904 21.6747 56.1147 22.0213 56.408 22.288C56.7013 22.5493 57.0933 22.68 57.584 22.68ZM64.1528 26.64C63.6194 26.64 63.2488 26.5973 63.0408 26.512C62.8328 26.432 62.7288 26.392 62.7288 26.392V25.144L63.5608 25.168C63.8968 25.184 64.1688 25.1653 64.3768 25.112C64.5901 25.0587 64.7554 24.984 64.8728 24.888C64.9901 24.7973 65.0754 24.6987 65.1288 24.592C65.1874 24.4907 65.2328 24.4027 65.2648 24.328L65.4808 23.72L62.2568 15.728H64.1928L66.3928 21.576L68.5848 15.728H70.4888L67.0808 24.304C66.8248 24.928 66.5474 25.408 66.2488 25.744C65.9554 26.0853 65.6328 26.32 65.2808 26.448C64.9341 26.576 64.5581 26.64 64.1528 26.64ZM75.8375 24V12.432H80.5335C81.4188 12.432 82.1468 12.5707 82.7175 12.848C83.2935 13.12 83.7202 13.5067 83.9975 14.008C84.2748 14.504 84.4135 15.0853 84.4135 15.752C84.4135 16.3707 84.3122 16.8907 84.1095 17.312C83.9068 17.728 83.6428 18.0693 83.3175 18.336C82.9975 18.5973 82.6535 18.8107 82.2855 18.976L84.4935 24H82.4615L80.4695 19.304H77.7815V24H75.8375ZM77.7815 17.76H80.0935C80.8295 17.76 81.4028 17.5893 81.8135 17.248C82.2295 16.9067 82.4375 16.432 82.4375 15.824C82.4375 15.2267 82.2455 14.7653 81.8615 14.44C81.4775 14.1147 80.9708 13.952 80.3415 13.952H77.7815V17.76ZM89.7166 24.16C88.9273 24.16 88.2393 23.992 87.6526 23.656C87.066 23.3147 86.61 22.8267 86.2846 22.192C85.9646 21.5573 85.8046 20.7947 85.8046 19.904C85.8046 19.04 85.962 18.2827 86.2766 17.632C86.5913 16.9813 87.0393 16.4747 87.6206 16.112C88.2073 15.7493 88.9086 15.568 89.7246 15.568C90.514 15.568 91.1993 15.7413 91.7806 16.088C92.362 16.4347 92.81 16.9307 93.1246 17.576C93.4446 18.2213 93.6046 18.9973 93.6046 19.904C93.6046 20.7413 93.4526 21.48 93.1486 22.12C92.85 22.7547 92.41 23.2533 91.8286 23.616C91.2526 23.9787 90.5486 24.16 89.7166 24.16ZM89.7246 22.68C90.1726 22.68 90.5406 22.5573 90.8286 22.312C91.122 22.0667 91.3406 21.7307 91.4846 21.304C91.6286 20.8773 91.7006 20.392 91.7006 19.848C91.7006 19.3413 91.6366 18.8747 91.5086 18.448C91.3806 18.0213 91.17 17.68 90.8766 17.424C90.5886 17.1627 90.2046 17.032 89.7246 17.032C89.2713 17.032 88.8953 17.152 88.5966 17.392C88.3033 17.6267 88.0846 17.9573 87.9406 18.384C87.7966 18.8053 87.7246 19.2933 87.7246 19.848C87.7246 20.3493 87.7886 20.816 87.9166 21.248C88.0446 21.6747 88.2553 22.0213 88.5486 22.288C88.842 22.5493 89.234 22.68 89.7246 22.68ZM98.3784 24.16C97.973 24.16 97.581 24.1013 97.2024 23.984C96.829 23.8613 96.493 23.6853 96.1944 23.456C95.8957 23.2213 95.6584 22.9333 95.4824 22.592C95.3064 22.2507 95.2184 21.8533 95.2184 21.4V15.728H97.1704V21.176C97.1704 21.624 97.3117 21.992 97.5944 22.28C97.8824 22.568 98.3144 22.712 98.8904 22.712C99.413 22.712 99.8317 22.576 100.146 22.304C100.461 22.0267 100.618 21.6293 100.618 21.112V15.728H102.554V24H101.058L100.842 22.384C100.741 22.8373 100.562 23.1947 100.306 23.456C100.056 23.712 99.7597 23.8933 99.4184 24C99.0824 24.1067 98.7357 24.16 98.3784 24.16ZM104.838 24V15.728H106.742V16.912C106.87 16.6987 107.044 16.4933 107.262 16.296C107.486 16.0987 107.761 15.9387 108.086 15.816C108.412 15.6933 108.793 15.632 109.23 15.632C109.742 15.632 110.217 15.7333 110.654 15.936C111.097 16.1387 111.452 16.456 111.718 16.888C111.99 17.32 112.126 17.8773 112.126 18.56V24H110.174V18.792C110.174 18.248 110.025 17.8453 109.726 17.584C109.428 17.3173 109.052 17.184 108.598 17.184C108.289 17.184 107.996 17.2373 107.718 17.344C107.441 17.4453 107.214 17.6027 107.038 17.816C106.868 18.024 106.782 18.2853 106.782 18.6V24H104.838ZM117.285 24.16C116.192 24.16 115.333 23.784 114.709 23.032C114.085 22.28 113.773 21.2107 113.773 19.824C113.773 18.96 113.899 18.2107 114.149 17.576C114.405 16.936 114.781 16.4427 115.277 16.096C115.773 15.744 116.384 15.568 117.109 15.568C117.451 15.568 117.76 15.6107 118.037 15.696C118.32 15.776 118.571 15.8827 118.789 16.016C119.008 16.1493 119.192 16.296 119.341 16.456C119.496 16.616 119.616 16.776 119.701 16.936V12.112H121.661V24H120.221L120.005 22.304C119.936 22.5013 119.837 22.7093 119.709 22.928C119.587 23.1413 119.419 23.3413 119.205 23.528C118.997 23.7147 118.736 23.8667 118.421 23.984C118.107 24.1013 117.728 24.16 117.285 24.16ZM117.685 22.728C118.384 22.728 118.893 22.5013 119.213 22.048C119.539 21.5893 119.701 20.832 119.701 19.776C119.696 19.1733 119.621 18.6667 119.477 18.256C119.339 17.8453 119.125 17.536 118.837 17.328C118.549 17.12 118.173 17.016 117.709 17.016C117.123 17.016 116.64 17.232 116.261 17.664C115.888 18.096 115.701 18.8 115.701 19.776C115.701 20.7467 115.875 21.4827 116.221 21.984C116.568 22.48 117.056 22.728 117.685 22.728Z" fill="white"/>
</svg>
