<svg width="134" height="36" viewBox="0 0 134 36" fill="none" xmlns="http://www.w3.org/2000/svg">
<rect width="134" height="36" rx="18" fill="#FF6500"/>
<path d="M19.6031 24V12.432C19.6511 12.432 19.7925 12.432 20.0271 12.432C20.2618 12.432 20.5391 12.432 20.8591 12.432C21.1845 12.432 21.5125 12.4347 21.8431 12.44C22.1791 12.44 22.4698 12.4427 22.7151 12.448C24.1231 12.4747 25.2671 12.7173 26.1471 13.176C27.0325 13.6293 27.6805 14.2773 28.0911 15.12C28.5071 15.9573 28.7151 16.968 28.7151 18.152C28.7151 19.3893 28.4938 20.4427 28.0511 21.312C27.6138 22.1813 26.9418 22.848 26.0351 23.312C25.1338 23.7707 23.9871 24 22.5951 24H19.6031ZM21.5791 22.392H22.6271C23.4218 22.392 24.1231 22.256 24.7311 21.984C25.3391 21.7067 25.8138 21.2587 26.1551 20.64C26.5018 20.0213 26.6751 19.1947 26.6751 18.16C26.6751 17.1573 26.5151 16.3547 26.1951 15.752C25.8751 15.1493 25.4165 14.7147 24.8191 14.448C24.2218 14.176 23.5071 14.04 22.6751 14.04H21.5791V22.392ZM34.2913 24.16C33.4966 24.16 32.7953 23.992 32.1873 23.656C31.5846 23.3147 31.1126 22.8293 30.7713 22.2C30.4353 21.5707 30.2673 20.8213 30.2673 19.952C30.2673 19.104 30.4193 18.352 30.7233 17.696C31.0326 17.0347 31.4779 16.5147 32.0593 16.136C32.6459 15.7573 33.3526 15.568 34.1793 15.568C34.9953 15.568 35.6806 15.7413 36.2353 16.088C36.7899 16.4347 37.2113 16.92 37.4993 17.544C37.7873 18.1627 37.9313 18.888 37.9313 19.72V20.312H32.2113C32.2059 20.7813 32.2806 21.1973 32.4353 21.56C32.5899 21.9227 32.8193 22.208 33.1233 22.416C33.4273 22.6187 33.8033 22.72 34.2513 22.72C34.7099 22.72 35.1073 22.6187 35.4433 22.416C35.7846 22.208 36.0113 21.8933 36.1233 21.472H37.8993C37.8032 22.048 37.5739 22.536 37.2113 22.936C36.8539 23.336 36.4166 23.64 35.8993 23.848C35.3873 24.056 34.8513 24.16 34.2913 24.16ZM32.2033 19.104H36.0913C36.0913 18.704 36.0193 18.344 35.8753 18.024C35.7366 17.6987 35.5259 17.4427 35.2433 17.256C34.9606 17.064 34.6033 16.968 34.1713 16.968C33.7446 16.968 33.3846 17.072 33.0913 17.28C32.7979 17.488 32.5766 17.7573 32.4273 18.088C32.2779 18.4133 32.2033 18.752 32.2033 19.104ZM39.7915 26.576V15.728H41.7355L41.7515 17.032C41.8582 16.8507 41.9942 16.672 42.1595 16.496C42.3302 16.32 42.5248 16.1627 42.7435 16.024C42.9675 15.8853 43.2155 15.776 43.4875 15.696C43.7595 15.6107 44.0582 15.568 44.3835 15.568C45.0182 15.568 45.5808 15.72 46.0715 16.024C46.5622 16.3227 46.9462 16.784 47.2235 17.408C47.5062 18.032 47.6475 18.8213 47.6475 19.776C47.6475 20.752 47.5035 21.5653 47.2155 22.216C46.9275 22.8667 46.5248 23.3547 46.0075 23.68C45.4902 24 44.8902 24.16 44.2075 24.16C43.8928 24.16 43.6048 24.1173 43.3435 24.032C43.0875 23.9467 42.8582 23.8293 42.6555 23.68C42.4528 23.5307 42.2742 23.368 42.1195 23.192C41.9702 23.016 41.8448 22.832 41.7435 22.64V26.576H39.7915ZM43.7755 22.704C44.3622 22.704 44.8475 22.472 45.2315 22.008C45.6155 21.5387 45.8075 20.8053 45.8075 19.808C45.8075 18.944 45.6262 18.264 45.2635 17.768C44.9062 17.2667 44.4102 17.016 43.7755 17.016C43.0928 17.016 42.5808 17.28 42.2395 17.808C41.8982 18.3307 41.7275 18.9973 41.7275 19.808C41.7275 20.3307 41.8022 20.8133 41.9515 21.256C42.1062 21.6933 42.3328 22.0453 42.6315 22.312C42.9355 22.5733 43.3168 22.704 43.7755 22.704ZM51.8005 24.12C51.2672 24.12 50.8405 24.0533 50.5205 23.92C50.2005 23.7867 49.9605 23.608 49.8005 23.384C49.6405 23.16 49.5365 22.9093 49.4885 22.632C49.4405 22.3493 49.4165 22.0613 49.4165 21.768V12.112H51.3205V21.544C51.3205 21.9013 51.3925 22.1787 51.5365 22.376C51.6858 22.5733 51.9258 22.688 52.2565 22.72L52.6725 22.736V23.96C52.5285 24.0027 52.3818 24.04 52.2325 24.072C52.0832 24.104 51.9392 24.12 51.8005 24.12ZM57.5291 24.16C56.7398 24.16 56.0518 23.992 55.4651 23.656C54.8785 23.3147 54.4225 22.8267 54.0971 22.192C53.7771 21.5573 53.6171 20.7947 53.6171 19.904C53.6171 19.04 53.7745 18.2827 54.0891 17.632C54.4038 16.9813 54.8518 16.4747 55.4331 16.112C56.0198 15.7493 56.7211 15.568 57.5371 15.568C58.3265 15.568 59.0118 15.7413 59.5931 16.088C60.1745 16.4347 60.6225 16.9307 60.9371 17.576C61.2571 18.2213 61.4171 18.9973 61.4171 19.904C61.4171 20.7413 61.2651 21.48 60.9611 22.12C60.6625 22.7547 60.2225 23.2533 59.6411 23.616C59.0651 23.9787 58.3611 24.16 57.5291 24.16ZM57.5371 22.68C57.9851 22.68 58.3531 22.5573 58.6411 22.312C58.9345 22.0667 59.1531 21.7307 59.2971 21.304C59.4411 20.8773 59.5131 20.392 59.5131 19.848C59.5131 19.3413 59.4491 18.8747 59.3211 18.448C59.1931 18.0213 58.9825 17.68 58.6891 17.424C58.4011 17.1627 58.0171 17.032 57.5371 17.032C57.0838 17.032 56.7078 17.152 56.4091 17.392C56.1158 17.6267 55.8971 17.9573 55.7531 18.384C55.6091 18.8053 55.5371 19.2933 55.5371 19.848C55.5371 20.3493 55.6011 20.816 55.7291 21.248C55.8571 21.6747 56.0678 22.0213 56.3611 22.288C56.6545 22.5493 57.0465 22.68 57.5371 22.68ZM64.1059 26.64C63.5725 26.64 63.2019 26.5973 62.9939 26.512C62.7859 26.432 62.6819 26.392 62.6819 26.392V25.144L63.5139 25.168C63.8499 25.184 64.1219 25.1653 64.3299 25.112C64.5432 25.0587 64.7085 24.984 64.8259 24.888C64.9432 24.7973 65.0285 24.6987 65.0819 24.592C65.1405 24.4907 65.1859 24.4027 65.2179 24.328L65.4339 23.72L62.2099 15.728H64.1459L66.3459 21.576L68.5379 15.728H70.4419L67.0339 24.304C66.7779 24.928 66.5005 25.408 66.2019 25.744C65.9085 26.0853 65.5859 26.32 65.2339 26.448C64.8872 26.576 64.5112 26.64 64.1059 26.64ZM75.7906 24V12.432H78.5746L81.6066 21.272L84.6706 12.432H87.4386V24H85.4626V14.928L82.4146 24H80.7906L77.7666 14.984V24H75.7906ZM89.3878 24L93.5398 12.432H95.6518L99.8038 24H97.8518L96.8198 21.096H92.3878L91.3478 24H89.3878ZM92.8518 19.368H96.3318L94.5958 14.32L92.8518 19.368ZM105.685 24.16C104.624 24.16 103.712 23.9173 102.949 23.432C102.192 22.9413 101.608 22.248 101.197 21.352C100.792 20.4507 100.589 19.3813 100.589 18.144C100.589 16.912 100.792 15.8587 101.197 14.984C101.603 14.1093 102.184 13.44 102.941 12.976C103.704 12.5067 104.619 12.272 105.685 12.272C106.533 12.272 107.285 12.4453 107.941 12.792C108.597 13.1333 109.125 13.5973 109.525 14.184C109.931 14.7707 110.171 15.424 110.245 16.144H108.189C108.109 15.7173 107.96 15.336 107.741 15C107.528 14.664 107.245 14.3973 106.893 14.2C106.541 14.0027 106.12 13.904 105.629 13.904C105.016 13.904 104.493 14.0507 104.061 14.344C103.635 14.632 103.307 15.0907 103.077 15.72C102.853 16.3493 102.741 17.1653 102.741 18.168C102.741 19.688 102.992 20.7947 103.493 21.488C103.995 22.1813 104.707 22.528 105.629 22.528C106.12 22.528 106.541 22.4213 106.893 22.208C107.245 21.9893 107.528 21.7013 107.741 21.344C107.96 20.9813 108.109 20.5867 108.189 20.16H110.245C110.181 20.6827 110.048 21.184 109.845 21.664C109.648 22.144 109.368 22.5733 109.005 22.952C108.643 23.3253 108.187 23.6213 107.637 23.84C107.093 24.0533 106.443 24.16 105.685 24.16ZM112.447 24V12.432H114.391V24H112.447Z" fill="white"/>
</svg>
