<svg width="16" height="16" viewBox="0 0 16 16" fill="none" xmlns="http://www.w3.org/2000/svg">
<g fill="black">
<path d="M9.46237 4.65916C9.46237 5.4015 8.80762 6.00329 7.99996 6.00329C7.19229 6.00329 6.53755 5.4015 6.53755 4.65916C6.53755 3.91682 7.19229 3.31503 7.99996 3.31503C8.80762 3.31503 9.46237 3.91682 9.46237 4.65916Z"/>
<path d="M10.681 9.56515C10.681 10.6044 9.48068 10.6405 7.99996 10.6405C6.51923 10.6405 5.31887 10.6044 5.31887 9.56515C5.31887 8.5259 5.98914 6.80977 7.99996 6.80977C10.0108 6.80977 10.681 8.5259 10.681 9.56515Z"/>
<path d="M4.10019 7.95227C4.90786 7.95227 5.5626 7.35048 5.5626 6.60814C5.5626 5.8658 4.90786 5.26401 4.10019 5.26401C3.29253 5.26401 2.63778 5.8658 2.63778 6.60814C2.63778 7.35048 3.29253 7.95227 4.10019 7.95227Z"/>
<path d="M13.3621 6.60814C13.3621 7.35048 12.7074 7.95227 11.8997 7.95227C11.0921 7.95227 10.4373 7.35048 10.4373 6.60814C10.4373 5.8658 11.0921 5.26401 11.8997 5.26401C12.7074 5.26401 13.3621 5.8658 13.3621 6.60814Z"/>
<path fill-rule="evenodd" clip-rule="evenodd" d="M7.99996 15.0118C12.3201 15.0118 15.8222 11.8702 15.8222 7.99478C15.8222 5.80888 14.708 3.85642 12.9612 2.56951C11.6382 1.57876 9.90163 0.977783 7.99996 0.977783C6.09828 0.977783 4.3617 1.57877 3.03865 2.56952C1.29193 3.85644 0.177734 5.80888 0.177734 7.99478C0.177734 11.8702 3.67986 15.0118 7.99996 15.0118ZM7.99996 13.4588C12.034 13.4588 15.2217 10.6872 15.2217 7.3621C15.2217 4.03696 12.034 1.26536 7.99996 1.26536C3.96596 1.26536 0.778205 4.03696 0.778205 7.3621C0.778205 10.6872 3.96596 13.4588 7.99996 13.4588Z"/>
</g>
</svg>
